<svg width="400" height="400" viewBox="0 0 400 400" fill="none" xmlns="http://www.w3.org/2000/svg">
  <rect width="400" height="400" fill="#FFFFFF"/>
  <!-- QR Header -->
  <text x="200" y="45" text-anchor="middle" font-family="sans-serif" font-weight="900" font-size="24" fill="#000000" letter-spacing="4">QRIS</text>
  <text x="200" y="65" text-anchor="middle" font-family="sans-serif" font-size="10" fill="#555555" letter-spacing="1">STANDAR PEMBAYARAN NASIONAL</text>
  <line x1="40" y1="75" x2="360" y2="75" stroke="#000000" stroke-width="2"/>

  <!-- QR Pattern Simulators -->
  <!-- Top Left Corner Marker -->
  <rect x="50" y="95" width="70" height="70" fill="#000000"/>
  <rect x="62" y="107" width="46" height="46" fill="#FFFFFF"/>
  <rect x="74" y="119" width="22" height="22" fill="#000000"/>

  <!-- Top Right Corner Marker -->
  <rect x="280" y="95" width="70" height="70" fill="#000000"/>
  <rect x="292" y="107" width="46" height="46" fill="#FFFFFF"/>
  <rect x="304" y="119" width="22" height="22" fill="#000000"/>

  <!-- Bottom Left Corner Marker -->
  <rect x="50" y="275" width="70" height="70" fill="#000000"/>
  <rect x="62" y="287" width="46" height="46" fill="#FFFFFF"/>
  <rect x="74" y="299" width="22" height="22" fill="#000000"/>

  <!-- Random QR Data Bits -->
  <rect x="140" y="100" width="20" height="20" fill="#000000"/>
  <rect x="170" y="100" width="20" height="20" fill="#000000"/>
  <rect x="210" y="100" width="20" height="20" fill="#000000"/>
  <rect x="240" y="100" width="20" height="20" fill="#000000"/>

  <rect x="130" y="130" width="30" height="20" fill="#000000"/>
  <rect x="180" y="130" width="40" height="20" fill="#000000"/>
  <rect x="230" y="130" width="30" height="20" fill="#000000"/>

  <rect x="130" y="160" width="20" height="30" fill="#000000"/>
  <rect x="170" y="160" width="30" height="30" fill="#000000"/>
  <rect x="220" y="160" width="20" height="20" fill="#000000"/>
  <rect x="250" y="160" width="30" height="30" fill="#000000"/>

  <!-- Center Gothic Crucifix Logo in QR -->
  <rect x="170" y="180" width="60" height="60" fill="#000000"/>
  <rect x="196" y="186" width="8" height="48" fill="#FFFFFF"/>
  <rect x="178" y="198" width="44" height="8" fill="#FFFFFF"/>

  <rect x="130" y="240" width="20" height="40" fill="#000000"/>
  <rect x="160" y="250" width="30" height="20" fill="#000000"/>
  <rect x="210" y="250" width="40" height="20" fill="#000000"/>
  <rect x="260" y="240" width="20" height="30" fill="#000000"/>

  <rect x="140" y="290" width="40" height="20" fill="#000000"/>
  <rect x="190" y="290" width="20" height="30" fill="#000000"/>
  <rect x="230" y="280" width="30" height="40" fill="#000000"/>
  <rect x="280" y="290" width="40" height="20" fill="#000000"/>

  <!-- Footer Merchant Stamp -->
  <line x1="40" y1="360" x2="360" y2="360" stroke="#000000" stroke-width="1"/>
  <text x="200" y="380" text-anchor="middle" font-family="monospace" font-size="11" fill="#000000" font-weight="bold">NETURISM STORE // JAKARTA</text>
</svg>
